# xmcd
#
# Track frame offsets:
#	150
#	15020
#	26965
#	41900
#	54275
#	67835
#	80290
#	92200
#	106565
#	119410
#	137015
#	151955
#	166695
#	178220
#	191030
#	207075
#	222225
#	232815
#	246515
#	260090
#	274145
#	288115
#	302160
#	316460
#	330425
#
# Disc length: 4600 seconds
#
# Revision: 0
# Processed by: cddbd v1.5.1PL0 Copyright (c) Steve Scherf et al.
# Submitted via: audiograbber 1.83.01
#
DISCID=5711f619
DTITLE=George Jones - Wine Colored Glasses
DYEAR=1900
DGENRE=Crossover
TTITLE0=Wine Colored Glasses
TTITLE1=I Turn To You
TTITLE2=The Right Left Hand
TTITLE3=Don't Leave Without Taking Your Silver
TTITLE4=The Very Best Of Me
TTITLE5=Hopelessly Yours
TTITLE6=You Never Looked That Good
TTITLE7=If Only Your Eyes Could Lie
TTITLE8=Ol'Frank
TTITLE9=These Old Eyes Have Seen It All
TTITLE10=Who's Gonna Fill Their Shoes
TTITLE11=Just When 
TTITLE12=The One I Loved Back Then
TTITLE13=If I Painted A Picture
TTITLE14=If You Can Touch Her At All
TTITLE15=Somebody Wants Me Out Of The Way
TTITLE16=A Whole Lot Of Trouble For You
TTITLE17=If Only You'd Love Me Again
TTITLE18=Call The Wrecker For My Heart
TTITLE19=That's Good-That's Bad
TTITLE20=You've Still Got A Place In My Heart
TTITLE21=From Strangers To Lovers
TTITLE22=What Love Can Do
TTITLE23=Come Sundown
TTITLE24=Even The Bad Times Are Good
EXTD=
EXTT0=
EXTT1=
EXTT2=
EXTT3=
EXTT4=
EXTT5=
EXTT6=
EXTT7=
EXTT8=
EXTT9=
EXTT10=
EXTT11=
EXTT12=
EXTT13=
EXTT14=
EXTT15=
EXTT16=
EXTT17=
EXTT18=
EXTT19=
EXTT20=
EXTT21=
EXTT22=
EXTT23=
EXTT24=
PLAYORDER=
